<svg width="22" height="22" viewBox="0 0 22 22" fill="none" xmlns="http://www.w3.org/2000/svg">
<path d="M11.9075 2.52085C12.6966 2.52084 13.0459 2.52154 13.3339 2.54732C16.5361 2.83402 19.0739 5.37183 19.3606 8.57403C19.3864 8.86205 19.3871 9.2113 19.3871 10.0004V10.9079C19.3871 11.2876 19.6949 11.5954 20.0746 11.5954C20.4543 11.5954 20.7621 11.2876 20.7621 10.9079V9.9542C20.7621 9.2237 20.7621 8.80857 20.7302 8.45141C20.3841 4.58669 17.3213 1.52382 13.4565 1.1778C13.0994 1.14582 12.6842 1.14583 11.9537 1.14584H11.0001C10.6204 1.14584 10.3126 1.45365 10.3126 1.83335C10.3126 2.21304 10.6204 2.52085 11.0001 2.52085L11.9075 2.52085Z" fill="#929292"/>
<path fill-rule="evenodd" clip-rule="evenodd" d="M6.51916 3.68987C5.55474 2.8037 4.07235 2.8037 3.10794 3.68987C3.06845 3.72616 3.02629 3.76833 2.97154 3.82309L2.14882 4.6458C1.32097 5.47365 0.973445 6.66708 1.22742 7.80996C2.66839 14.2943 7.73255 19.3585 14.2169 20.7995C15.3598 21.0534 16.5532 20.7059 17.3811 19.8781L18.2037 19.0554C18.2585 19.0006 18.3007 18.9585 18.337 18.9189C19.2232 17.9545 19.2232 16.4721 18.337 15.5077C18.3007 15.4682 18.2585 15.426 18.2037 15.3712L16.8569 14.0244C15.9218 13.0893 14.5096 12.8219 13.2974 13.3503C12.6034 13.6528 11.7949 13.4997 11.2596 12.9644L9.06251 10.7673C8.52717 10.232 8.37406 9.42351 8.67658 8.7295C9.205 7.51724 8.93757 6.10509 8.00247 5.17L6.65558 3.82311C6.60083 3.76834 6.55866 3.72616 6.51916 3.68987ZM4.03827 4.70234C4.47664 4.29954 5.15046 4.29954 5.58883 4.70234C5.60396 4.71625 5.62379 4.73586 5.69352 4.80559L7.0302 6.14227C7.56554 6.67761 7.71864 7.48606 7.41612 8.18007C6.8877 9.39233 7.15514 10.8045 8.09023 11.7396L10.2873 13.9366C11.2224 14.8717 12.6346 15.1392 13.8468 14.6108C14.5408 14.3082 15.3493 14.4613 15.8846 14.9967L17.2213 16.3334C17.291 16.4031 17.3106 16.4229 17.3245 16.4381C17.7273 16.8764 17.7273 17.5502 17.3245 17.9886C17.3106 18.0037 17.291 18.0236 17.2213 18.0933L16.4088 18.9058C15.9134 19.4012 15.1992 19.6092 14.5152 19.4572C8.55198 18.132 3.89484 13.4749 2.56968 7.51168C2.41768 6.82772 2.62566 6.11351 3.1211 5.61807L3.93358 4.80559C4.0033 4.73586 4.02314 4.71625 4.03827 4.70234Z" fill="#929292"/>
<path d="M11.6482 4.38675C11.2685 4.38675 10.9607 4.69455 10.9607 5.07425C10.9607 5.45395 11.2685 5.76175 11.6482 5.76175H12.1667C12.1767 5.76175 12.186 5.76175 12.1946 5.76175C12.2548 5.76176 12.2827 5.76182 12.3061 5.76215C14.414 5.79234 16.1155 7.49385 16.1457 9.60179C16.1461 9.62845 16.1461 9.66119 16.1461 9.74116V10.2597C16.1461 10.6394 16.4539 10.9472 16.8336 10.9472C17.2133 10.9472 17.5211 10.6394 17.5211 10.2597V9.7345C17.5211 9.7256 17.5211 9.71713 17.5211 9.70905C17.5211 9.65251 17.521 9.61519 17.5206 9.5821C17.4797 6.73018 15.1777 4.42814 12.3258 4.38729C12.2879 4.38675 12.2446 4.38675 12.1733 4.38675H11.6482Z" fill="#929292"/>
</svg>
