<svg width="22" height="22" viewBox="0 0 22 22" fill="none" xmlns="http://www.w3.org/2000/svg">
<path d="M16.5 15.3542C16.8797 15.3542 17.1875 15.0464 17.1875 14.6667C17.1875 14.287 16.8797 13.9792 16.5 13.9792L11 13.9792C10.6203 13.9792 10.3125 14.287 10.3125 14.6667C10.3125 15.0464 10.6203 15.3542 11 15.3542L16.5 15.3542Z" fill="#929292"/>
<path fill-rule="evenodd" clip-rule="evenodd" d="M16.8163 2.12723C16.024 2.06249 15.0382 2.0625 13.7808 2.0625H8.21924C6.96183 2.0625 5.97602 2.06249 5.1837 2.12723C4.3769 2.19315 3.71038 2.3296 3.1071 2.63699C2.11533 3.14232 1.30899 3.94865 0.803658 4.94043C0.496269 5.54371 0.359817 6.21023 0.293899 7.01702C0.229164 7.80934 0.229168 8.79516 0.229172 10.0526V10.1141C0.229168 11.3715 0.229164 12.3573 0.293899 13.1496C0.359817 13.9564 0.496269 14.623 0.803658 15.2262C1.30899 16.218 2.11533 17.0243 3.1071 17.5297C3.71038 17.8371 4.3769 17.9735 5.1837 18.0394C5.976 18.1042 6.9618 18.1042 8.21918 18.1042H10.3125V19.7853C9.74017 19.8253 9.17047 19.9154 8.61002 20.0555L7.16659 20.4164C6.79824 20.5085 6.57428 20.8817 6.66637 21.2501C6.75845 21.6184 7.13172 21.8424 7.50008 21.7503L8.94351 21.3895C9.61862 21.2207 10.3093 21.1363 11 21.1363C11.6907 21.1363 12.3814 21.2207 13.0565 21.3895L14.4999 21.7503C14.8683 21.8424 15.2416 21.6184 15.3336 21.2501C15.4257 20.8817 15.2018 20.5085 14.8334 20.4164L13.39 20.0555C12.8295 19.9154 12.2598 19.8253 11.6875 19.7853V18.1042H13.7808C15.0382 18.1042 16.024 18.1042 16.8163 18.0394C17.6231 17.9735 18.2896 17.8371 18.8929 17.5297C19.8847 17.0243 20.691 16.218 21.1964 15.2262C21.5037 14.623 21.6402 13.9564 21.7061 13.1496C21.7708 12.3573 21.7708 11.3715 21.7708 10.1142V10.0526C21.7708 8.79517 21.7708 7.80933 21.7061 7.01702C21.6402 6.21023 21.5037 5.54371 21.1964 4.94043C20.691 3.94865 19.8847 3.14232 18.8929 2.63699C18.2896 2.3296 17.6231 2.19315 16.8163 2.12723ZM16.7043 16.669C15.9746 16.7286 15.0448 16.7292 13.75 16.7292H8.25C6.95521 16.7292 6.02546 16.7286 5.29567 16.669C4.5739 16.61 4.10848 16.4967 3.73133 16.3045C2.99829 15.931 2.4023 15.3351 2.02879 14.602C1.83663 14.2249 1.7233 13.7594 1.66433 13.0377C1.60471 12.3079 1.60417 11.3781 1.60417 10.0833C1.60417 8.78854 1.60471 7.85878 1.66433 7.12899C1.7233 6.40723 1.83663 5.9418 2.02879 5.56466C2.4023 4.83161 2.99829 4.23563 3.73133 3.86212C4.10848 3.66996 4.5739 3.55663 5.29567 3.49766C6.02546 3.43803 6.95521 3.4375 8.25 3.4375H13.75C15.0448 3.4375 15.9746 3.43803 16.7043 3.49766C17.4261 3.55663 17.8915 3.66996 18.2687 3.86212C19.0017 4.23563 19.5977 4.83161 19.9712 5.56466C20.1634 5.9418 20.2767 6.40723 20.3357 7.12899C20.3953 7.85878 20.3958 8.78854 20.3958 10.0833C20.3958 11.3781 20.3953 12.3079 20.3357 13.0377C20.2767 13.7594 20.1634 14.2249 19.9712 14.602C19.5977 15.3351 19.0017 15.931 18.2687 16.3045C17.8915 16.4967 17.4261 16.61 16.7043 16.669Z" fill="#929292"/>
<path d="M7.33334 14.6667C7.33334 15.1729 6.92293 15.5833 6.41667 15.5833C5.91041 15.5833 5.5 15.1729 5.5 14.6667C5.5 14.1604 5.91041 13.75 6.41667 13.75C6.92293 13.75 7.33334 14.1604 7.33334 14.6667Z" fill="#929292"/>
</svg>
