<svg width="24" height="24" viewBox="0 0 24 24" fill="none" xmlns="http://www.w3.org/2000/svg">
<path fill-rule="evenodd" clip-rule="evenodd" d="M5 1C3.93913 1 2.92172 1.42143 2.17157 2.17157C1.42143 2.92172 1 3.93913 1 5V19C1 20.0609 1.42143 21.0783 2.17157 21.8284C2.92172 22.5786 3.93913 23 5 23H19C20.0609 23 21.0783 22.5786 21.8284 21.8284C22.5786 21.0783 23 20.0609 23 19V5C23 3.93913 22.5786 2.92172 21.8284 2.17157C21.0783 1.42143 20.0609 1 19 1H5ZM9.682 7.273C9.682 6.40512 10.0267 5.57277 10.6403 4.95899C11.2539 4.34522 12.0861 4.00027 12.954 4H15.864C16.064 4 16.227 4.163 16.227 4.364V7.273C16.227 7.473 16.064 7.636 15.864 7.636H14.409C14.2658 7.636 14.124 7.66423 13.9916 7.71907C13.8593 7.77391 13.7391 7.85429 13.6379 7.95561C13.5367 8.05693 13.4564 8.17721 13.4017 8.30957C13.347 8.44193 13.3189 8.58378 13.319 8.727V9.818H15.864C15.9192 9.81818 15.9736 9.83091 16.0232 9.85523C16.0727 9.87954 16.1161 9.9148 16.15 9.95835C16.1839 10.0019 16.2075 10.0526 16.2189 10.1066C16.2303 10.1606 16.2293 10.2164 16.216 10.27L15.489 13.18C15.4696 13.2588 15.4242 13.3287 15.3602 13.3784C15.2961 13.4281 15.2171 13.4548 15.136 13.454H13.318V19.636C13.318 19.7325 13.2796 19.8251 13.2114 19.8934C13.1431 19.9617 13.0505 20 12.954 20H10.045C9.94863 19.9997 9.85631 19.9613 9.78826 19.893C9.72021 19.8248 9.682 19.7324 9.682 19.636V13.455H7.864C7.76746 13.455 7.67488 13.4167 7.60661 13.3484C7.53835 13.2801 7.5 13.1875 7.5 13.091V10.181C7.5 9.981 7.663 9.818 7.864 9.818H9.682V7.273Z" fill="#9747FF"/>
</svg>
