<svg width="21" height="21" viewBox="0 0 21 21" fill="none" xmlns="http://www.w3.org/2000/svg">
<path fill-rule="evenodd" clip-rule="evenodd" d="M10.4963 0.0035431C10.3676 -0.00118103 10.2387 -0.00118103 10.1099 0.0035431C9.25978 0.0347288 8.4943 0.323798 7.65499 0.804994C6.83708 1.27393 5.89544 1.95807 4.70068 2.82613L4.63573 2.87332C3.44095 3.74136 2.4993 4.42551 1.80056 5.05848C1.08356 5.70802 0.572091 6.3467 0.279737 7.14556C0.23545 7.26657 0.195616 7.38917 0.160315 7.5131C-0.0727202 8.33123 -0.0343461 9.14857 0.163938 10.0955C0.357169 11.0183 0.716851 12.1253 1.17322 13.5298L1.19803 13.6062C1.65438 15.0107 2.01406 16.1177 2.40013 16.9778C2.7963 17.8604 3.24568 18.5442 3.91509 19.0691C4.0165 19.1486 4.12079 19.2244 4.22775 19.2963C4.90123 19.7488 5.6504 19.9664 6.55376 20.0758C7.51473 20.1922 8.71622 20.1922 10.2571 20.1922H10.3491C11.89 20.1922 13.0915 20.1922 14.0525 20.0758C14.9558 19.9664 15.705 19.7488 16.3785 19.2963C16.4854 19.2244 16.5897 19.1486 16.6911 19.0691C17.3605 18.5442 17.8099 17.8604 18.2061 16.9778C18.5922 16.1177 18.9518 15.0107 19.4082 13.6061L19.433 13.5298C19.8893 12.1253 20.2491 11.0183 20.4423 10.0955C20.6406 9.14857 20.6789 8.33123 20.4459 7.5131C20.4106 7.38917 20.3708 7.26658 20.3265 7.14556C20.0341 6.3467 19.5227 5.70802 18.8057 5.05848C18.1069 4.4255 17.1653 3.74136 15.9705 2.87331L15.9055 2.82611C14.7108 1.95806 13.7691 1.27392 12.9512 0.804994C12.1119 0.323798 11.3464 0.0347288 10.4963 0.0035431ZM10.1603 1.37762C10.2555 1.37413 10.3507 1.37413 10.4459 1.37762C10.9917 1.39764 11.5354 1.5782 12.2673 1.99785C13.0133 2.42553 13.8954 3.0653 15.1298 3.96213C16.3642 4.85896 17.2453 5.50023 17.8825 6.07752C18.5078 6.64398 18.8475 7.1052 19.0352 7.61811C19.068 7.70755 19.0974 7.79817 19.1235 7.88977C19.2731 8.41506 19.2694 8.98787 19.0965 9.81369C18.9202 10.6553 18.5844 11.692 18.1129 13.1431C17.6414 14.5942 17.3038 15.6303 16.9517 16.4147C16.6062 17.1845 16.2725 17.6501 15.8427 17.9871C15.7677 18.0459 15.6906 18.1019 15.6116 18.155C15.3407 18.337 15.0367 18.4722 14.6573 18.5708V16.1055C14.6573 13.7008 12.7078 11.7514 10.3031 11.7514C7.89837 11.7514 5.94894 13.7008 5.94894 16.1055V18.5708C5.56948 18.4722 5.26554 18.337 4.99463 18.155C4.91557 18.1019 4.83849 18.0459 4.76354 17.9871C4.33373 17.6501 4.00006 17.1845 3.65456 16.4147C3.30245 15.6303 2.96482 14.5942 2.49333 13.1431C2.02184 11.692 1.68598 10.6553 1.50975 9.81369C1.33683 8.98787 1.33309 8.41506 1.48272 7.88977C1.50881 7.79817 1.53825 7.70756 1.57098 7.61811C1.75869 7.1052 2.0984 6.64398 2.7237 6.07752C3.36096 5.50023 4.24202 4.85896 5.4764 3.96213C6.71078 3.0653 7.59293 2.42553 8.33889 1.99785C9.07085 1.5782 9.61447 1.39764 10.1603 1.37762ZM10.3031 13.1264C11.9485 13.1264 13.2823 14.4602 13.2823 16.1055V18.7658C12.5092 18.8165 11.5528 18.8172 10.3031 18.8172C9.05343 18.8172 8.09706 18.8165 7.32394 18.7658V16.1055C7.32394 14.4602 8.65776 13.1264 10.3031 13.1264Z" fill="#929292"/>
</svg>
