<svg width="163" height="27" viewBox="0 0 163 27" fill="none" xmlns="http://www.w3.org/2000/svg">
<path d="M16.496 10.576C16.496 11.7707 16.208 12.8907 15.632 13.936C15.0773 14.9813 14.192 15.824 12.976 16.464C11.7813 17.104 10.2667 17.424 8.432 17.424H4.688V26H0.208V3.664H8.432C10.16 3.664 11.632 3.96267 12.848 4.56C14.064 5.15733 14.9707 5.97867 15.568 7.024C16.1867 8.06933 16.496 9.25333 16.496 10.576ZM8.24 13.808C9.47733 13.808 10.3947 13.5307 10.992 12.976C11.5893 12.4 11.888 11.6 11.888 10.576C11.888 8.4 10.672 7.312 8.24 7.312H4.688V13.808H8.24ZM28.1888 26.288C26.4821 26.288 24.9461 25.9147 23.5807 25.168C22.2154 24.4 21.1381 23.3227 20.3487 21.936C19.5807 20.5493 19.1967 18.9493 19.1967 17.136C19.1967 15.3227 19.5914 13.7227 20.3807 12.336C21.1914 10.9493 22.2901 9.88267 23.6767 9.136C25.0634 8.368 26.6101 7.984 28.3167 7.984C30.0234 7.984 31.5701 8.368 32.9567 9.136C34.3434 9.88267 35.4314 10.9493 36.2208 12.336C37.0314 13.7227 37.4368 15.3227 37.4368 17.136C37.4368 18.9493 37.0208 20.5493 36.1887 21.936C35.3781 23.3227 34.2687 24.4 32.8608 25.168C31.4741 25.9147 29.9168 26.288 28.1888 26.288ZM28.1888 22.384C28.9994 22.384 29.7567 22.192 30.4607 21.808C31.1861 21.4027 31.7621 20.8053 32.1888 20.016C32.6154 19.2267 32.8287 18.2667 32.8287 17.136C32.8287 15.4507 32.3807 14.16 31.4847 13.264C30.6101 12.3467 29.5327 11.888 28.2527 11.888C26.9727 11.888 25.8954 12.3467 25.0207 13.264C24.1674 14.16 23.7407 15.4507 23.7407 17.136C23.7407 18.8213 24.1567 20.1227 24.9887 21.04C25.8421 21.936 26.9088 22.384 28.1888 22.384ZM49.491 11.952H46.387V26H41.843V11.952H39.827V8.272H41.843V7.376C41.843 5.2 42.4617 3.6 43.699 2.576C44.9363 1.552 46.803 1.072 49.299 1.136V4.912C48.211 4.89067 47.4537 5.072 47.027 5.456C46.6003 5.84 46.387 6.53333 46.387 7.536V8.272H49.491V11.952ZM60.9062 26.288C59.1996 26.288 57.6636 25.9147 56.2982 25.168C54.9329 24.4 53.8556 23.3227 53.0662 21.936C52.2982 20.5493 51.9142 18.9493 51.9142 17.136C51.9142 15.3227 52.3089 13.7227 53.0982 12.336C53.9089 10.9493 55.0076 9.88267 56.3942 9.136C57.7809 8.368 59.3276 7.984 61.0342 7.984C62.7409 7.984 64.2876 8.368 65.6742 9.136C67.0609 9.88267 68.1489 10.9493 68.9382 12.336C69.7489 13.7227 70.1542 15.3227 70.1542 17.136C70.1542 18.9493 69.7382 20.5493 68.9062 21.936C68.0956 23.3227 66.9862 24.4 65.5782 25.168C64.1916 25.9147 62.6342 26.288 60.9062 26.288ZM60.9062 22.384C61.7169 22.384 62.4742 22.192 63.1782 21.808C63.9036 21.4027 64.4796 20.8053 64.9062 20.016C65.3329 19.2267 65.5462 18.2667 65.5462 17.136C65.5462 15.4507 65.0982 14.16 64.2022 13.264C63.3276 12.3467 62.2502 11.888 60.9702 11.888C59.6902 11.888 58.6129 12.3467 57.7382 13.264C56.8849 14.16 56.4582 15.4507 56.4582 17.136C56.4582 18.8213 56.8742 20.1227 57.7062 21.04C58.5596 21.936 59.6262 22.384 60.9062 22.384Z" fill="#9747FF"/>
<path d="M96.0965 8.016C98.2725 8.016 100.022 8.688 101.344 10.032C102.688 11.3547 103.36 13.2107 103.36 15.6V26H98.8805V16.208C98.8805 14.8213 98.5285 13.7653 97.8245 13.04C97.1205 12.2933 96.1605 11.92 94.9445 11.92C93.7285 11.92 92.7578 12.2933 92.0325 13.04C91.3285 13.7653 90.9765 14.8213 90.9765 16.208V26H86.4965V16.208C86.4965 14.8213 86.1445 13.7653 85.4405 13.04C84.7365 12.2933 83.7765 11.92 82.5605 11.92C81.3232 11.92 80.3418 12.2933 79.6165 13.04C78.9125 13.7653 78.5605 14.8213 78.5605 16.208V26H74.0805V8.272H78.5605V10.416C79.1365 9.66933 79.8725 9.08267 80.7685 8.656C81.6858 8.22933 82.6885 8.016 83.7765 8.016C85.1632 8.016 86.4005 8.31467 87.4885 8.912C88.5765 9.488 89.4192 10.32 90.0165 11.408C90.5925 10.384 91.4245 9.56267 92.5125 8.944C93.6218 8.32533 94.8165 8.016 96.0965 8.016ZM110.524 6.16C109.734 6.16 109.073 5.91467 108.54 5.424C108.028 4.912 107.772 4.28267 107.772 3.536C107.772 2.78933 108.028 2.17067 108.54 1.68C109.073 1.168 109.734 0.911999 110.524 0.911999C111.313 0.911999 111.964 1.168 112.476 1.68C113.009 2.17067 113.276 2.78933 113.276 3.536C113.276 4.28267 113.009 4.912 112.476 5.424C111.964 5.91467 111.313 6.16 110.524 6.16ZM112.732 8.272V26H108.252V8.272H112.732ZM127.622 8.016C129.734 8.016 131.441 8.688 132.742 10.032C134.043 11.3547 134.694 13.2107 134.694 15.6V26H130.214V16.208C130.214 14.8 129.862 13.7227 129.158 12.976C128.454 12.208 127.494 11.824 126.278 11.824C125.041 11.824 124.059 12.208 123.334 12.976C122.63 13.7227 122.278 14.8 122.278 16.208V26H117.798V8.272H122.278V10.48C122.875 9.712 123.633 9.11467 124.55 8.688C125.489 8.24 126.513 8.016 127.622 8.016ZM141.578 26.224C140.768 26.224 140.096 25.9787 139.562 25.488C139.05 24.976 138.794 24.3467 138.794 23.6C138.794 22.8533 139.05 22.2347 139.562 21.744C140.096 21.232 140.768 20.976 141.578 20.976C142.368 20.976 143.018 21.232 143.53 21.744C144.042 22.2347 144.298 22.8533 144.298 23.6C144.298 24.3467 144.042 24.976 143.53 25.488C143.018 25.9787 142.368 26.224 141.578 26.224ZM150.531 26.224C149.72 26.224 149.048 25.9787 148.515 25.488C148.003 24.976 147.747 24.3467 147.747 23.6C147.747 22.8533 148.003 22.2347 148.515 21.744C149.048 21.232 149.72 20.976 150.531 20.976C151.32 20.976 151.971 21.232 152.483 21.744C152.995 22.2347 153.251 22.8533 153.251 23.6C153.251 24.3467 152.995 24.976 152.483 25.488C151.971 25.9787 151.32 26.224 150.531 26.224ZM159.483 26.224C158.673 26.224 158.001 25.9787 157.467 25.488C156.955 24.976 156.699 24.3467 156.699 23.6C156.699 22.8533 156.955 22.2347 157.467 21.744C158.001 21.232 158.673 20.976 159.483 20.976C160.273 20.976 160.923 21.232 161.435 21.744C161.947 22.2347 162.203 22.8533 162.203 23.6C162.203 24.3467 161.947 24.976 161.435 25.488C160.923 25.9787 160.273 26.224 159.483 26.224Z" fill="black"/>
</svg>
